<svg width="30" height="30" viewBox="0 0 30 30" fill="none" xmlns="http://www.w3.org/2000/svg">
<path d="M21.4283 17.8851L21.4173 17.9788C18.7258 16.6088 18.4442 16.4263 18.0966 16.9588C17.8555 17.3276 17.1529 18.1638 16.9412 18.4113C16.727 18.6551 16.514 18.6738 16.1505 18.5051C15.7833 18.3176 14.6046 17.9238 13.2093 16.6488C12.1224 15.6551 11.3929 14.4363 11.1775 14.0613C10.8189 13.4288 11.5692 13.3388 12.2522 12.0188C12.3746 11.7563 12.3121 11.55 12.2216 11.3638C12.1298 11.1763 11.3991 9.33873 11.0931 8.60623C10.7993 7.87622 10.497 7.96872 10.2706 7.96872C9.56555 7.90622 9.05026 7.91622 8.59616 8.39872C6.62067 10.6162 7.11883 12.9038 8.80913 15.3363C12.131 19.7763 13.9009 20.5939 17.137 21.7289C18.011 22.0126 18.8078 21.9726 19.4381 21.8801C20.1407 21.7664 21.6009 20.9789 21.9056 20.0976C22.2177 19.2163 22.2177 18.4851 22.1259 18.3163C22.0354 18.1476 21.7955 18.0538 21.4283 17.8851Z" fill="white"/>
<path d="M25.1159 4.31184C15.7048 -4.97951 0.129741 1.75931 0.123621 14.867C0.123621 17.487 0.795581 20.042 2.07586 22.2983L0 30.0009L7.75386 27.9358C17.4294 33.2734 29.3704 26.1858 29.3753 14.8745C29.3753 10.9044 27.8576 7.16812 25.0975 4.36059L25.1159 4.31184ZM26.9298 14.8332C26.9225 24.3746 16.6668 30.3334 8.55556 25.4633L8.11493 25.1958L3.52504 26.4146L4.75513 21.8583L4.4626 21.3895C-0.585059 13.1832 5.21412 2.45807 14.7758 2.45807C18.0242 2.45807 21.0731 3.75183 23.3693 6.09561C25.6642 8.41938 26.9298 11.5332 26.9298 14.8332Z" fill="white"/>
</svg>
